<mxfile host="app.diagrams.net" agent="Mozilla/5.0 (Windows NT 10.0; Win64; x64) AppleWebKit/537.36 (KHTML, like Gecko) Chrome/131.0.0.0 Safari/537.36 Edg/131.0.0.0" version="25.0.3">
  <diagram name="Page-1" id="cveQF9KXkBe8RBYlzswg">
    <mxGraphModel dx="3166" dy="2356" grid="1" gridSize="10" guides="1" tooltips="1" connect="1" arrows="1" fold="1" page="1" pageScale="1" pageWidth="850" pageHeight="1100" math="0" shadow="0">
      <root>
        <mxCell id="0" />
        <mxCell id="1" parent="0" />
        <mxCell id="GAnnp0jn5iv9FbY18NxS-1" value="" style="edgeStyle=orthogonalEdgeStyle;rounded=0;orthogonalLoop=1;jettySize=auto;html=1;" edge="1" parent="1" source="GAnnp0jn5iv9FbY18NxS-2" target="GAnnp0jn5iv9FbY18NxS-4">
          <mxGeometry relative="1" as="geometry" />
        </mxCell>
        <mxCell id="GAnnp0jn5iv9FbY18NxS-2" value="&lt;font data-font-src=&quot;https://fonts.googleapis.com/css?family=Sarabun&quot; face=&quot;Sarabun&quot;&gt;Start&lt;/font&gt;" style="ellipse;whiteSpace=wrap;html=1;" vertex="1" parent="1">
          <mxGeometry x="-517.0000000000001" y="-1070" width="130" height="30" as="geometry" />
        </mxCell>
        <mxCell id="GAnnp0jn5iv9FbY18NxS-3" value="" style="edgeStyle=orthogonalEdgeStyle;rounded=0;orthogonalLoop=1;jettySize=auto;html=1;" edge="1" parent="1" source="GAnnp0jn5iv9FbY18NxS-4" target="GAnnp0jn5iv9FbY18NxS-5">
          <mxGeometry relative="1" as="geometry" />
        </mxCell>
        <mxCell id="GAnnp0jn5iv9FbY18NxS-4" value="เปิดไฟล์&amp;nbsp;a15-9.txt&amp;nbsp;&lt;span style=&quot;color: rgba(0, 0, 0, 0); font-family: monospace; font-size: 0px; text-align: start; text-wrap-mode: nowrap;&quot;&gt;%3CmxGraphModel%3E%3Croot%3E%3CmxCell%20id%3D%220%22%2F%3E%3CmxCell%20id%3D%221%22%20parent%3D%220%22%2F%3E%3CmxCell%20id%3D%222%22%20value%3D%22%E0%B8%81%E0%B8%B3%E0%B8%AB%E0%B8%99%E0%B8%94%E0%B8%95%E0%B8%B1%E0%B8%A7%E0%B9%81%E0%B8%9B%E0%B8%A3%20arr%22%20style%3D%22rounded%3D0%3BwhiteSpace%3Dwrap%3Bhtml%3D1%3B%22%20vertex%3D%221%22%20parent%3D%221%22%3E%3CmxGeometry%20x%3D%22-680%22%20y%3D%22-980%22%20width%3D%22160%22%20height%3D%2240%22%20as%3D%22geometry%22%2F%3E%3C%2FmxCell%3E%3C%2Froot%3E%3C%2FmxGraphModel%3E&lt;/span&gt;" style="rounded=0;whiteSpace=wrap;html=1;" vertex="1" parent="1">
          <mxGeometry x="-533" y="-1010" width="160" height="40" as="geometry" />
        </mxCell>
        <mxCell id="GAnnp0jn5iv9FbY18NxS-5" value="เปิดได้หรือไม่" style="rhombus;whiteSpace=wrap;html=1;" vertex="1" parent="1">
          <mxGeometry x="-517" y="-940" width="127" height="80" as="geometry" />
        </mxCell>
        <mxCell id="GAnnp0jn5iv9FbY18NxS-7" value="T" style="text;html=1;align=center;verticalAlign=middle;resizable=0;points=[];autosize=1;strokeColor=none;fillColor=none;" vertex="1" parent="1">
          <mxGeometry x="-443" y="-870" width="30" height="30" as="geometry" />
        </mxCell>
        <mxCell id="GAnnp0jn5iv9FbY18NxS-8" value="F" style="text;html=1;align=center;verticalAlign=middle;resizable=0;points=[];autosize=1;strokeColor=none;fillColor=none;" vertex="1" parent="1">
          <mxGeometry x="-393" y="-930" width="30" height="30" as="geometry" />
        </mxCell>
        <mxCell id="GAnnp0jn5iv9FbY18NxS-9" value="" style="edgeStyle=orthogonalEdgeStyle;rounded=0;orthogonalLoop=1;jettySize=auto;html=1;" edge="1" parent="1">
          <mxGeometry relative="1" as="geometry">
            <mxPoint x="-453" y="-860" as="sourcePoint" />
            <mxPoint x="-453" y="-820" as="targetPoint" />
          </mxGeometry>
        </mxCell>
        <mxCell id="GAnnp0jn5iv9FbY18NxS-38" style="edgeStyle=orthogonalEdgeStyle;rounded=0;orthogonalLoop=1;jettySize=auto;html=1;entryX=0.5;entryY=0;entryDx=0;entryDy=0;" edge="1" parent="1" source="GAnnp0jn5iv9FbY18NxS-11" target="GAnnp0jn5iv9FbY18NxS-22">
          <mxGeometry relative="1" as="geometry" />
        </mxCell>
        <mxCell id="GAnnp0jn5iv9FbY18NxS-11" value="เอาข้อความใน&amp;nbsp;&amp;nbsp;a15-9.txt&amp;nbsp;&amp;nbsp;&lt;div&gt;ใส่&amp;nbsp;&lt;span style=&quot;background-color: initial;&quot;&gt;input&lt;/span&gt;&lt;/div&gt;" style="rounded=0;whiteSpace=wrap;html=1;" vertex="1" parent="1">
          <mxGeometry x="-529" y="-595" width="160" height="40" as="geometry" />
        </mxCell>
        <mxCell id="GAnnp0jn5iv9FbY18NxS-13" value="" style="edgeStyle=orthogonalEdgeStyle;rounded=0;orthogonalLoop=1;jettySize=auto;html=1;" edge="1" parent="1">
          <mxGeometry relative="1" as="geometry">
            <mxPoint x="-447.48571428571427" y="-420" as="sourcePoint" />
            <mxPoint x="-447" y="-380" as="targetPoint" />
          </mxGeometry>
        </mxCell>
        <mxCell id="GAnnp0jn5iv9FbY18NxS-14" value="" style="edgeStyle=orthogonalEdgeStyle;rounded=0;orthogonalLoop=1;jettySize=auto;html=1;" edge="1" parent="1" source="GAnnp0jn5iv9FbY18NxS-16">
          <mxGeometry relative="1" as="geometry">
            <mxPoint x="-447.6190476190477" y="-185" as="targetPoint" />
          </mxGeometry>
        </mxCell>
        <mxCell id="GAnnp0jn5iv9FbY18NxS-15" style="edgeStyle=orthogonalEdgeStyle;rounded=0;orthogonalLoop=1;jettySize=auto;html=1;entryX=0;entryY=0.5;entryDx=0;entryDy=0;" edge="1" parent="1" source="GAnnp0jn5iv9FbY18NxS-16" target="GAnnp0jn5iv9FbY18NxS-18">
          <mxGeometry relative="1" as="geometry">
            <Array as="points">
              <mxPoint x="-580" y="-250" />
              <mxPoint x="-580" y="-640" />
            </Array>
          </mxGeometry>
        </mxCell>
        <mxCell id="GAnnp0jn5iv9FbY18NxS-16" value="แปลงครบทุกตัวแล้วหรือไม่" style="rhombus;whiteSpace=wrap;html=1;" vertex="1" parent="1">
          <mxGeometry x="-512" y="-290" width="128" height="80" as="geometry" />
        </mxCell>
        <mxCell id="GAnnp0jn5iv9FbY18NxS-37" style="edgeStyle=orthogonalEdgeStyle;rounded=0;orthogonalLoop=1;jettySize=auto;html=1;entryX=0.5;entryY=0;entryDx=0;entryDy=0;" edge="1" parent="1" source="GAnnp0jn5iv9FbY18NxS-18" target="GAnnp0jn5iv9FbY18NxS-11">
          <mxGeometry relative="1" as="geometry" />
        </mxCell>
        <mxCell id="GAnnp0jn5iv9FbY18NxS-18" value="" style="ellipse;whiteSpace=wrap;html=1;aspect=fixed;" vertex="1" parent="1">
          <mxGeometry x="-463.5" y="-655" width="30" height="30" as="geometry" />
        </mxCell>
        <mxCell id="GAnnp0jn5iv9FbY18NxS-39" value="" style="edgeStyle=orthogonalEdgeStyle;rounded=0;orthogonalLoop=1;jettySize=auto;html=1;" edge="1" parent="1" source="GAnnp0jn5iv9FbY18NxS-22" target="GAnnp0jn5iv9FbY18NxS-23">
          <mxGeometry relative="1" as="geometry" />
        </mxCell>
        <mxCell id="GAnnp0jn5iv9FbY18NxS-22" value="แปลงข้อมูลเป็น&amp;nbsp;ASCII" style="rounded=0;whiteSpace=wrap;html=1;" vertex="1" parent="1">
          <mxGeometry x="-529" y="-525" width="160" height="40" as="geometry" />
        </mxCell>
        <mxCell id="GAnnp0jn5iv9FbY18NxS-23" value="เก็บที่แปลงไว้ใน arr ASCII" style="rounded=0;whiteSpace=wrap;html=1;" vertex="1" parent="1">
          <mxGeometry x="-529" y="-460" width="160" height="40" as="geometry" />
        </mxCell>
        <mxCell id="GAnnp0jn5iv9FbY18NxS-27" value="T" style="text;html=1;align=center;verticalAlign=middle;resizable=0;points=[];autosize=1;strokeColor=none;fillColor=none;" vertex="1" parent="1">
          <mxGeometry x="-480" y="-220" width="30" height="30" as="geometry" />
        </mxCell>
        <mxCell id="GAnnp0jn5iv9FbY18NxS-28" value="F" style="text;html=1;align=center;verticalAlign=middle;resizable=0;points=[];autosize=1;strokeColor=none;fillColor=none;" vertex="1" parent="1">
          <mxGeometry x="-570" y="-280" width="30" height="30" as="geometry" />
        </mxCell>
        <mxCell id="GAnnp0jn5iv9FbY18NxS-31" value="" style="edgeStyle=orthogonalEdgeStyle;rounded=0;orthogonalLoop=1;jettySize=auto;html=1;" edge="1" parent="1" source="GAnnp0jn5iv9FbY18NxS-32">
          <mxGeometry relative="1" as="geometry">
            <mxPoint x="-448" y="-660" as="targetPoint" />
          </mxGeometry>
        </mxCell>
        <mxCell id="GAnnp0jn5iv9FbY18NxS-32" value="กำหนดตัวแปร&amp;nbsp;input" style="rounded=0;whiteSpace=wrap;html=1;" vertex="1" parent="1">
          <mxGeometry x="-528" y="-740" width="160" height="40" as="geometry" />
        </mxCell>
        <mxCell id="GAnnp0jn5iv9FbY18NxS-33" value="กำหนดตัวแปร ASCII" style="rounded=0;whiteSpace=wrap;html=1;" vertex="1" parent="1">
          <mxGeometry x="-530" y="-820" width="160" height="40" as="geometry" />
        </mxCell>
        <mxCell id="GAnnp0jn5iv9FbY18NxS-34" value="" style="edgeStyle=orthogonalEdgeStyle;rounded=0;orthogonalLoop=1;jettySize=auto;html=1;" edge="1" parent="1" source="GAnnp0jn5iv9FbY18NxS-33">
          <mxGeometry relative="1" as="geometry">
            <mxPoint x="-450" y="-740" as="targetPoint" />
          </mxGeometry>
        </mxCell>
        <mxCell id="GAnnp0jn5iv9FbY18NxS-64" value="" style="edgeStyle=orthogonalEdgeStyle;rounded=0;orthogonalLoop=1;jettySize=auto;html=1;" edge="1" parent="1" source="GAnnp0jn5iv9FbY18NxS-41" target="GAnnp0jn5iv9FbY18NxS-63">
          <mxGeometry relative="1" as="geometry" />
        </mxCell>
        <mxCell id="GAnnp0jn5iv9FbY18NxS-41" value="start ASCII convert" style="shape=process;whiteSpace=wrap;html=1;backgroundOutline=1;" vertex="1" parent="1">
          <mxGeometry x="-210" y="-1000" width="120" height="60" as="geometry" />
        </mxCell>
        <mxCell id="GAnnp0jn5iv9FbY18NxS-45" value="" style="edgeStyle=orthogonalEdgeStyle;rounded=0;orthogonalLoop=1;jettySize=auto;html=1;" edge="1" parent="1" source="GAnnp0jn5iv9FbY18NxS-42" target="GAnnp0jn5iv9FbY18NxS-44">
          <mxGeometry relative="1" as="geometry" />
        </mxCell>
        <mxCell id="GAnnp0jn5iv9FbY18NxS-42" value="ASCII += 6" style="rounded=0;whiteSpace=wrap;html=1;" vertex="1" parent="1">
          <mxGeometry x="-220" y="-790" width="140" height="40" as="geometry" />
        </mxCell>
        <mxCell id="GAnnp0jn5iv9FbY18NxS-51" value="" style="edgeStyle=orthogonalEdgeStyle;rounded=0;orthogonalLoop=1;jettySize=auto;html=1;" edge="1" parent="1" source="GAnnp0jn5iv9FbY18NxS-44" target="GAnnp0jn5iv9FbY18NxS-50">
          <mxGeometry relative="1" as="geometry" />
        </mxCell>
        <mxCell id="GAnnp0jn5iv9FbY18NxS-57" value="" style="edgeStyle=orthogonalEdgeStyle;rounded=0;orthogonalLoop=1;jettySize=auto;html=1;" edge="1" parent="1" source="GAnnp0jn5iv9FbY18NxS-44" target="GAnnp0jn5iv9FbY18NxS-55">
          <mxGeometry relative="1" as="geometry" />
        </mxCell>
        <mxCell id="GAnnp0jn5iv9FbY18NxS-44" value="ASCII เกิน 90 หรือไม่" style="rhombus;whiteSpace=wrap;html=1;" vertex="1" parent="1">
          <mxGeometry x="-203.34" y="-720" width="106.67" height="80" as="geometry" />
        </mxCell>
        <mxCell id="GAnnp0jn5iv9FbY18NxS-68" value="" style="edgeStyle=orthogonalEdgeStyle;rounded=0;orthogonalLoop=1;jettySize=auto;html=1;" edge="1" parent="1" source="GAnnp0jn5iv9FbY18NxS-46" target="GAnnp0jn5iv9FbY18NxS-67">
          <mxGeometry relative="1" as="geometry" />
        </mxCell>
        <mxCell id="GAnnp0jn5iv9FbY18NxS-46" value="แปลงเป็น string" style="rounded=0;whiteSpace=wrap;html=1;" vertex="1" parent="1">
          <mxGeometry x="-220" y="-560" width="140" height="40" as="geometry" />
        </mxCell>
        <mxCell id="GAnnp0jn5iv9FbY18NxS-59" style="edgeStyle=orthogonalEdgeStyle;rounded=0;orthogonalLoop=1;jettySize=auto;html=1;entryX=1;entryY=0.5;entryDx=0;entryDy=0;" edge="1" parent="1" source="GAnnp0jn5iv9FbY18NxS-50" target="GAnnp0jn5iv9FbY18NxS-55">
          <mxGeometry relative="1" as="geometry">
            <Array as="points">
              <mxPoint y="-600" />
            </Array>
          </mxGeometry>
        </mxCell>
        <mxCell id="GAnnp0jn5iv9FbY18NxS-50" value="เอาไป 26" style="rounded=0;whiteSpace=wrap;html=1;" vertex="1" parent="1">
          <mxGeometry x="-60" y="-700" width="140" height="40" as="geometry" />
        </mxCell>
        <mxCell id="GAnnp0jn5iv9FbY18NxS-52" value="T" style="text;html=1;align=center;verticalAlign=middle;resizable=0;points=[];autosize=1;strokeColor=none;fillColor=none;" vertex="1" parent="1">
          <mxGeometry x="-96.67000000000002" y="-710" width="30" height="30" as="geometry" />
        </mxCell>
        <mxCell id="GAnnp0jn5iv9FbY18NxS-54" value="F" style="text;html=1;align=center;verticalAlign=middle;resizable=0;points=[];autosize=1;strokeColor=none;fillColor=none;" vertex="1" parent="1">
          <mxGeometry x="-150" y="-650" width="30" height="30" as="geometry" />
        </mxCell>
        <mxCell id="GAnnp0jn5iv9FbY18NxS-58" value="" style="edgeStyle=orthogonalEdgeStyle;rounded=0;orthogonalLoop=1;jettySize=auto;html=1;" edge="1" parent="1" source="GAnnp0jn5iv9FbY18NxS-55" target="GAnnp0jn5iv9FbY18NxS-46">
          <mxGeometry relative="1" as="geometry" />
        </mxCell>
        <mxCell id="GAnnp0jn5iv9FbY18NxS-55" value="" style="ellipse;whiteSpace=wrap;html=1;aspect=fixed;" vertex="1" parent="1">
          <mxGeometry x="-160" y="-610" width="20" height="20" as="geometry" />
        </mxCell>
        <mxCell id="GAnnp0jn5iv9FbY18NxS-60" value="ปริ้นค่า" style="rounded=0;whiteSpace=wrap;html=1;" vertex="1" parent="1">
          <mxGeometry x="-230" y="-460" width="160" height="40" as="geometry" />
        </mxCell>
        <mxCell id="GAnnp0jn5iv9FbY18NxS-66" style="edgeStyle=orthogonalEdgeStyle;rounded=0;orthogonalLoop=1;jettySize=auto;html=1;entryX=0.5;entryY=0;entryDx=0;entryDy=0;" edge="1" parent="1" source="GAnnp0jn5iv9FbY18NxS-63" target="GAnnp0jn5iv9FbY18NxS-42">
          <mxGeometry relative="1" as="geometry" />
        </mxCell>
        <mxCell id="GAnnp0jn5iv9FbY18NxS-71" style="edgeStyle=orthogonalEdgeStyle;rounded=0;orthogonalLoop=1;jettySize=auto;html=1;entryX=0;entryY=0.5;entryDx=0;entryDy=0;" edge="1" parent="1" source="GAnnp0jn5iv9FbY18NxS-63" target="GAnnp0jn5iv9FbY18NxS-67">
          <mxGeometry relative="1" as="geometry">
            <Array as="points">
              <mxPoint x="-270" y="-860" />
              <mxPoint x="-270" y="-490" />
            </Array>
          </mxGeometry>
        </mxCell>
        <mxCell id="GAnnp0jn5iv9FbY18NxS-63" value="เป็นเว้นวรรคหรือไม่" style="rhombus;whiteSpace=wrap;html=1;" vertex="1" parent="1">
          <mxGeometry x="-210" y="-900" width="120" height="80" as="geometry" />
        </mxCell>
        <mxCell id="GAnnp0jn5iv9FbY18NxS-69" style="edgeStyle=orthogonalEdgeStyle;rounded=0;orthogonalLoop=1;jettySize=auto;html=1;" edge="1" parent="1" source="GAnnp0jn5iv9FbY18NxS-67" target="GAnnp0jn5iv9FbY18NxS-60">
          <mxGeometry relative="1" as="geometry" />
        </mxCell>
        <mxCell id="GAnnp0jn5iv9FbY18NxS-67" value="" style="ellipse;whiteSpace=wrap;html=1;aspect=fixed;" vertex="1" parent="1">
          <mxGeometry x="-160" y="-500" width="20" height="20" as="geometry" />
        </mxCell>
        <mxCell id="GAnnp0jn5iv9FbY18NxS-72" value="T" style="text;html=1;align=center;verticalAlign=middle;resizable=0;points=[];autosize=1;strokeColor=none;fillColor=none;" vertex="1" parent="1">
          <mxGeometry x="-233.34" y="-890" width="30" height="30" as="geometry" />
        </mxCell>
        <mxCell id="GAnnp0jn5iv9FbY18NxS-73" value="F" style="text;html=1;align=center;verticalAlign=middle;resizable=0;points=[];autosize=1;strokeColor=none;fillColor=none;" vertex="1" parent="1">
          <mxGeometry x="-130" y="-835" width="30" height="30" as="geometry" />
        </mxCell>
        <mxCell id="GAnnp0jn5iv9FbY18NxS-77" style="edgeStyle=orthogonalEdgeStyle;rounded=0;orthogonalLoop=1;jettySize=auto;html=1;entryX=0.5;entryY=0;entryDx=0;entryDy=0;" edge="1" parent="1" source="GAnnp0jn5iv9FbY18NxS-74" target="GAnnp0jn5iv9FbY18NxS-16">
          <mxGeometry relative="1" as="geometry" />
        </mxCell>
        <mxCell id="GAnnp0jn5iv9FbY18NxS-74" value="ASCII convert" style="shape=process;whiteSpace=wrap;html=1;backgroundOutline=1;" vertex="1" parent="1">
          <mxGeometry x="-508.5" y="-375" width="120" height="60" as="geometry" />
        </mxCell>
        <mxCell id="GAnnp0jn5iv9FbY18NxS-78" value="&lt;font data-font-src=&quot;https://fonts.googleapis.com/css?family=Sarabun&quot; face=&quot;Sarabun&quot;&gt;End&lt;/font&gt;" style="ellipse;whiteSpace=wrap;html=1;" vertex="1" parent="1">
          <mxGeometry x="-513.0000000000001" y="-185" width="130" height="30" as="geometry" />
        </mxCell>
      </root>
    </mxGraphModel>
  </diagram>
</mxfile>
